<svg width="71" height="71" viewBox="0 0 71 71" fill="none" xmlns="http://www.w3.org/2000/svg">
<g clip-path="url(#clip0_58_129)">
<path d="M68.3192 29.3276L39.359 29.3262C38.0802 29.3262 37.0436 30.3626 37.0436 31.6414V40.8929C37.0436 42.1715 38.0801 43.2082 39.3588 43.2082H55.6675C53.8817 47.8427 50.5486 51.724 46.296 54.1902L53.25 66.2281C64.4051 59.7767 71 48.4571 71 35.7855C71 33.9812 70.867 32.6915 70.6011 31.2392C70.3989 30.1357 69.4409 29.3276 68.3192 29.3276Z" fill="#167EE6"/>
<path d="M35.5 57.1087C27.5189 57.1087 20.5515 52.748 16.8094 46.2952L4.77185 53.2335C10.8977 63.8505 22.3733 71 35.5 71C41.9395 71 48.0157 69.2662 53.25 66.2446V66.2281L46.296 54.19C43.1152 56.0349 39.4343 57.1087 35.5 57.1087Z" fill="#12B347"/>
<path d="M53.25 66.2447V66.2282L46.296 54.1901C43.1152 56.0348 39.4345 57.1087 35.5 57.1087V71C41.9395 71 48.016 69.2662 53.25 66.2447Z" fill="#0F993E"/>
<path d="M13.8913 35.5C13.8913 31.566 14.9649 27.8855 16.8094 24.7048L4.77184 17.7665C1.73368 22.9843 0 29.044 0 35.5C0 41.956 1.73368 48.0157 4.77184 53.2335L16.8094 46.2952C14.9649 43.1144 13.8913 39.434 13.8913 35.5Z" fill="#FFD500"/>
<path d="M35.5 13.8913C40.7045 13.8913 45.4851 15.7406 49.2191 18.8168C50.1403 19.5756 51.4792 19.5208 52.323 18.677L58.878 12.122C59.8354 11.1646 59.7672 9.59748 58.7445 8.71026C52.4883 3.28278 44.3483 0 35.5 0C22.3733 0 10.8977 7.14951 4.77185 17.7665L16.8094 24.7048C20.5515 18.252 27.5189 13.8913 35.5 13.8913Z" fill="#FF4B26"/>
<path d="M49.2191 18.8168C50.1403 19.5756 51.4793 19.5208 52.323 18.677L58.878 12.122C59.8352 11.1646 59.767 9.59748 58.7445 8.71026C52.4883 3.28264 44.3482 0 35.5 0V13.8913C40.7044 13.8913 45.4851 15.7406 49.2191 18.8168Z" fill="#D93F21"/>
</g>
<defs>
<clipPath id="clip0_58_129">
<rect width="71" height="71" fill="white"/>
</clipPath>
</defs>
</svg>
