<svg width="158" height="53" viewBox="0 0 158 53" fill="none" xmlns="http://www.w3.org/2000/svg">
<g clip-path="url(#clip0_58_127)">
<path d="M0 -0.065918V32.6306C0 44.9577 8.55833 53.0659 19.75 53.0659C25.2142 53.0659 30.02 50.9565 33.5092 47.3308V52.209H41.2775V-0.065918H33.4433V32.1692C33.4433 40.4751 27.8475 46.0784 20.6717 46.0784C13.3642 46.0784 7.83417 40.607 7.83417 32.1692V-0.065918H0ZM48.98 -0.065918V52.209H56.4192V47.3968C58.1891 49.1979 60.3004 50.6271 62.6291 51.6006C64.9579 52.574 67.4573 53.0722 69.9808 53.0659C72.6077 53.0924 75.2135 52.5938 77.6455 51.5994C80.0776 50.6049 82.2871 49.1347 84.1447 47.2746C86.0023 45.4146 87.4706 43.2022 88.4637 40.7669C89.4568 38.3316 89.9547 35.7224 89.9283 33.092C89.9285 30.4783 89.4111 27.8904 88.4063 25.4781C87.4014 23.0658 85.929 20.8768 84.074 19.0378C82.2191 17.1988 80.0185 15.7463 77.5995 14.7641C75.1805 13.782 72.591 13.2898 69.9808 13.3159C67.4673 13.311 64.9782 13.8101 62.6603 14.7838C60.3424 15.7574 58.2427 17.1859 56.485 18.9851V-0.065918H48.98ZM113.957 13.3159C102.832 13.3159 94.405 22.4129 94.405 33.092C94.405 44.4963 103.227 52.8682 114.616 52.8682C121.594 52.8682 127.256 49.9677 131.008 44.8918L125.61 40.8047C122.779 44.6281 119.027 46.2761 114.616 46.2761C108.23 46.2761 103.095 41.7935 102.042 35.597H132.983V33.092C132.983 21.8197 124.886 13.3159 113.957 13.3159ZM155.367 13.8433C151.219 13.8433 148.125 15.755 146.282 18.7873V14.107H138.842V52.209H146.348V30.5211C146.348 24.6542 149.968 20.8309 154.906 20.8309H158V13.7774H155.367M113.826 19.908C119.422 19.908 124.096 23.7973 125.347 29.5983H102.042C103.556 23.7973 108.23 19.908 113.826 19.908ZM69.4542 19.908C76.63 19.908 82.4892 25.8408 82.4892 33.092C82.4892 40.541 76.63 46.2761 69.4542 46.2761C65.9736 46.2587 62.6415 44.862 60.1865 42.3914C57.7314 39.9208 56.3533 36.5773 56.3533 33.092C56.3533 29.6068 57.7314 26.2633 60.1865 23.7927C62.6415 21.3221 65.9736 19.9254 69.4542 19.908Z" fill="black"/>
</g>
<defs>
<clipPath id="clip0_58_127">
<rect width="158" height="53" fill="white"/>
</clipPath>
</defs>
</svg>
