<svg width="152" height="50" viewBox="0 0 152 50" fill="none" xmlns="http://www.w3.org/2000/svg">
<path d="M65.7353 49.1666H53.3622L61.0953 0.863115H73.4697L65.7353 49.1666ZM42.9532 0.863115L31.1572 34.0866L29.7614 26.9323L29.7626 26.9349L25.5993 5.21229C25.5993 5.21229 25.0959 0.863115 19.7299 0.863115H0.228826L0 1.68101C0 1.68101 5.96346 2.94209 12.9427 7.2021L23.6924 49.1679H36.5842L56.2696 0.863115H42.9532ZM140.274 49.1666H151.635L141.73 0.861824H131.783C127.19 0.861824 126.072 4.46158 126.072 4.46158L107.618 49.1666H120.516L123.096 41.9916H138.825L140.274 49.1666ZM126.659 32.08L133.16 14.0037L136.818 32.08H126.659ZM108.586 12.479L110.351 2.1061C110.351 2.1061 104.903 0 99.2228 0C93.0826 0 78.5013 2.7276 78.5013 15.9909C78.5013 28.4699 95.6149 28.625 95.6149 35.1797C95.6149 41.7345 80.2645 40.56 75.1986 36.4266L73.3591 47.2724C73.3591 47.2724 78.8839 50 87.3251 50C95.7688 50 108.507 45.5565 108.507 33.4625C108.507 20.9034 91.2393 19.7341 91.2393 14.2737C91.2405 8.81205 103.291 9.51365 108.586 12.479Z" fill="#2566AF"/>
<path d="M29.7626 26.9336L25.5993 5.21099C25.5993 5.21099 25.0959 0.861816 19.7299 0.861816H0.228826L0 1.67971C0 1.67971 9.37297 3.65402 18.3633 11.0512C26.9595 18.1215 29.7626 26.9336 29.7626 26.9336Z" fill="#E6A540"/>
</svg>
