<svg width="98" height="63" viewBox="0 0 98 63" fill="none" xmlns="http://www.w3.org/2000/svg">
<path d="M92.7893 0H5.23568C2.34228 0 0 2.3994 0 5.35155V57.6485C0 60.6006 2.34228 63 5.22316 63H92.7768C95.6577 63 97.9999 60.6006 97.9999 57.6485V5.35155C98.0125 2.3994 95.6702 0 92.7893 0ZM36.4619 43.654H28.9466V29.333C28.9466 29.0566 28.7211 28.8305 28.4455 28.8305C28.195 28.8305 27.9946 29.0064 27.957 29.2451L23.5606 43.654H18.1621L13.7781 29.2325C13.7405 29.0064 13.5401 28.8305 13.2896 28.8305C13.0141 28.8305 12.7886 29.0566 12.7886 29.333V43.654H5.27326V19.0319H11.7239H13.6529C15.0307 19.0319 16.4836 20.1123 16.8844 21.4313L20.5419 33.4283C20.7298 34.0313 21.0179 34.0187 21.2058 33.4283L24.8632 21.4313C25.264 20.0997 26.717 19.0319 28.0948 19.0319H30.0112H36.4619V43.654ZM64.3939 43.654H56.8785V29.0189C56.866 28.7803 56.6781 28.5793 56.4276 28.5793C56.2523 28.5793 56.1145 28.6672 56.0393 28.8179V28.8305C56.0393 28.8431 56.0268 28.8556 56.0268 28.8682L49.8893 42.0712C49.501 42.9254 48.4489 43.6164 47.4969 43.6666H39.9816V19.0445H47.4969V33.3655C47.4969 33.6419 47.7224 33.868 47.9979 33.868C48.1733 33.868 48.3236 33.7801 48.4113 33.6544C48.4363 33.6042 48.4614 33.5665 48.4739 33.5037L54.4486 20.6399C54.8494 19.7731 55.9266 19.0822 56.8785 19.0445H64.3939V43.654ZM84.1843 35.7398H75.6669V43.7797H68.1515V30.2124H91.9626C90.8103 33.4158 87.7666 35.7147 84.1843 35.7398ZM92.2758 28.9561C92.2758 28.9561 79.2241 28.9561 79.2116 28.9561C72.8236 28.9561 67.5879 24.5719 67.1495 19.0319H84.1592C88.731 19.0696 92.4261 22.788 92.4261 27.3858C92.4261 27.926 92.376 28.4536 92.2758 28.9561Z" fill="#12B347"/>
</svg>
