<svg width="26" height="49" viewBox="0 0 26 49" fill="none" xmlns="http://www.w3.org/2000/svg">
<path d="M25.2267 4.75662C25.441 4.52988 25.6085 4.26315 25.7197 3.97167C25.8309 3.68019 25.8835 3.36966 25.8747 3.05782C25.8659 2.74598 25.7957 2.43893 25.6683 2.1542C25.5408 1.86947 25.3584 1.61264 25.1317 1.39837C24.905 1.1841 24.6382 1.01659 24.3468 0.905407C24.0553 0.79422 23.7447 0.741533 23.4329 0.750355C23.1211 0.759176 22.814 0.829334 22.5293 0.956821C22.2446 1.08431 21.9877 1.26663 21.7735 1.49337L1.58596 22.8684C1.16906 23.3093 0.936768 23.8932 0.936768 24.5C0.936768 25.1068 1.16906 25.6907 1.58596 26.1316L21.7735 47.509C21.9863 47.7407 22.2431 47.9278 22.5289 48.0594C22.8146 48.1911 23.1237 48.2646 23.4382 48.2758C23.7526 48.287 24.0661 48.2355 24.3605 48.1245C24.6549 48.0135 24.9243 47.8451 25.1531 47.6291C25.3818 47.4131 25.5654 47.1537 25.6931 46.8662C25.8208 46.5786 25.8901 46.2686 25.8969 45.954C25.9038 45.6394 25.8481 45.3266 25.733 45.0338C25.6179 44.741 25.4458 44.4739 25.2267 44.2481L6.57821 24.5L25.2267 4.75662Z" fill="black"/>
</svg>
