<svg width="26" height="26" viewBox="0 0 26 26" fill="none" xmlns="http://www.w3.org/2000/svg">
<path d="M25.7615 20.887L17.8745 13L25.7615 5.11305C25.9126 4.96007 25.9973 4.7537 25.9973 4.53867C25.9973 4.32363 25.9126 4.11726 25.7615 3.96429L22.0357 0.23854C21.9604 0.162932 21.8709 0.10294 21.7723 0.062006C21.6737 0.0210716 21.5681 0 21.4613 0C21.3546 0 21.2489 0.0210716 21.1504 0.062006C21.0518 0.10294 20.9623 0.162932 20.887 0.23854L13 8.12549L5.11305 0.23854C4.9607 0.0862351 4.75409 0.000674987 4.53867 0.000674987C4.32324 0.000674987 4.11664 0.0862351 3.96429 0.23854L0.23854 3.96429C0.162932 4.03962 0.10294 4.12913 0.062006 4.2277C0.0210716 4.32626 0 4.43194 0 4.53867C0 4.6454 0.0210716 4.75107 0.062006 4.84964C0.10294 4.94821 0.162932 5.03772 0.23854 5.11305L8.12549 13L0.23854 20.887C0.0862351 21.0393 0.000674987 21.2459 0.000674987 21.4613C0.000674987 21.6768 0.0862351 21.8834 0.23854 22.0357L3.96429 25.7615C4.03962 25.8371 4.12913 25.8971 4.2277 25.938C4.32626 25.9789 4.43194 26 4.53867 26C4.6454 26 4.75107 25.9789 4.84964 25.938C4.94821 25.8971 5.03772 25.8371 5.11305 25.7615L13 17.8745L20.887 25.7615C21.0393 25.9138 21.2459 25.9993 21.4613 25.9993C21.6768 25.9993 21.8834 25.9138 22.0357 25.7615L25.7615 22.0357C25.8371 21.9604 25.8971 21.8709 25.938 21.7723C25.9789 21.6737 26 21.5681 26 21.4613C26 21.3546 25.9789 21.2489 25.938 21.1504C25.8971 21.0518 25.8371 20.9623 25.7615 20.887Z" fill="white"/>
</svg>
