<svg width="142" height="24" viewBox="0 0 142 24" fill="none" xmlns="http://www.w3.org/2000/svg">
<path d="M1.43555 19V3.96777H4.4707V19H1.43555ZM17.2573 19H14.376V13.4424C14.376 12.2666 14.3145 11.5078 14.1914 11.166C14.0684 10.8174 13.8667 10.5474 13.5864 10.356C13.313 10.1646 12.9814 10.0688 12.5918 10.0688C12.0928 10.0688 11.645 10.2056 11.2485 10.479C10.8521 10.7524 10.5786 11.1147 10.4282 11.5659C10.2847 12.0171 10.2129 12.8511 10.2129 14.0679V19H7.33154V8.11035H10.0078V9.70996C10.958 8.47949 12.1543 7.86426 13.5967 7.86426C14.2324 7.86426 14.8135 7.98047 15.3398 8.21289C15.8662 8.43848 16.2627 8.729 16.5293 9.08447C16.8027 9.43994 16.9907 9.84326 17.0933 10.2944C17.2026 10.7456 17.2573 11.3916 17.2573 12.2324V19ZM25.1836 8.11035V10.4072H23.2148V14.7959C23.2148 15.6846 23.2319 16.2041 23.2661 16.3545C23.3071 16.498 23.3926 16.6177 23.5225 16.7134C23.6592 16.8091 23.8232 16.8569 24.0146 16.8569C24.2812 16.8569 24.6675 16.7646 25.1733 16.5801L25.4194 18.8154C24.7495 19.1025 23.9907 19.2461 23.1431 19.2461C22.6235 19.2461 22.1553 19.1606 21.7383 18.9897C21.3213 18.812 21.0137 18.5864 20.8154 18.313C20.624 18.0327 20.4907 17.6567 20.4155 17.1851C20.354 16.8501 20.3232 16.1733 20.3232 15.1548V10.4072H19.0005V8.11035H20.3232V5.94678L23.2148 4.26514V8.11035H25.1836ZM33.4893 15.5342L36.3604 16.0161C35.9912 17.0688 35.4067 17.8721 34.6069 18.4258C33.814 18.9727 32.8193 19.2461 31.623 19.2461C29.7295 19.2461 28.3281 18.6274 27.4189 17.3901C26.7012 16.3989 26.3423 15.1479 26.3423 13.6372C26.3423 11.8325 26.814 10.4209 27.7573 9.40234C28.7007 8.37695 29.8936 7.86426 31.3359 7.86426C32.9561 7.86426 34.2344 8.40088 35.1709 9.47412C36.1074 10.5405 36.5552 12.1777 36.5142 14.3857H29.2954C29.3159 15.2402 29.5483 15.9067 29.9927 16.3853C30.437 16.8569 30.9907 17.0928 31.6538 17.0928C32.105 17.0928 32.4844 16.9697 32.792 16.7236C33.0996 16.4775 33.332 16.0811 33.4893 15.5342ZM33.6533 12.6221C33.6328 11.7881 33.4175 11.1558 33.0073 10.7251C32.5972 10.2876 32.0981 10.0688 31.5103 10.0688C30.8813 10.0688 30.3618 10.2979 29.9517 10.7559C29.5415 11.2139 29.3398 11.8359 29.3467 12.6221H33.6533ZM41.6309 19H38.7495V8.11035H41.4258V9.65869C41.8838 8.92725 42.2939 8.44531 42.6562 8.21289C43.0254 7.98047 43.4424 7.86426 43.9072 7.86426C44.5635 7.86426 45.1958 8.04541 45.8042 8.40771L44.9121 10.9199C44.4268 10.6055 43.9756 10.4482 43.5586 10.4482C43.1553 10.4482 42.8135 10.561 42.5332 10.7866C42.2529 11.0054 42.0308 11.4053 41.8667 11.9863C41.7095 12.5674 41.6309 13.7842 41.6309 15.6367V19ZM47.0552 6.63379V3.96777H49.9365V6.63379H47.0552ZM47.0552 19V8.11035H49.9365V19H47.0552ZM52.2334 13.4014C52.2334 12.4443 52.4692 11.5181 52.9409 10.6226C53.4126 9.72705 54.0791 9.04346 54.9404 8.57178C55.8086 8.1001 56.7759 7.86426 57.8423 7.86426C59.4897 7.86426 60.8398 8.40088 61.8926 9.47412C62.9453 10.5405 63.4717 11.8906 63.4717 13.5244C63.4717 15.1719 62.9385 16.5391 61.8721 17.626C60.8125 18.7061 59.4761 19.2461 57.8628 19.2461C56.8647 19.2461 55.9111 19.0205 55.002 18.5693C54.0996 18.1182 53.4126 17.4585 52.9409 16.5903C52.4692 15.7153 52.2334 14.6523 52.2334 13.4014ZM55.1865 13.5552C55.1865 14.6353 55.4429 15.4624 55.9556 16.0366C56.4683 16.6108 57.1006 16.8979 57.8525 16.8979C58.6045 16.8979 59.2334 16.6108 59.7393 16.0366C60.252 15.4624 60.5083 14.6284 60.5083 13.5347C60.5083 12.4683 60.252 11.6479 59.7393 11.0737C59.2334 10.4995 58.6045 10.2124 57.8525 10.2124C57.1006 10.2124 56.4683 10.4995 55.9556 11.0737C55.4429 11.6479 55.1865 12.4751 55.1865 13.5552ZM68.4961 19H65.6147V8.11035H68.291V9.65869C68.749 8.92725 69.1592 8.44531 69.5215 8.21289C69.8906 7.98047 70.3076 7.86426 70.7725 7.86426C71.4287 7.86426 72.061 8.04541 72.6694 8.40771L71.7773 10.9199C71.292 10.6055 70.8408 10.4482 70.4238 10.4482C70.0205 10.4482 69.6787 10.561 69.3984 10.7866C69.1182 11.0054 68.896 11.4053 68.7319 11.9863C68.5747 12.5674 68.4961 13.7842 68.4961 15.6367V19ZM79.7959 19V3.96777H82.8311V9.88428H88.7783V3.96777H91.8135V19H88.7783V12.4272H82.8311V19H79.7959ZM97.0942 11.4326L94.4795 10.9609C94.7734 9.9082 95.2793 9.12891 95.9971 8.62305C96.7148 8.11719 97.7812 7.86426 99.1963 7.86426C100.481 7.86426 101.438 8.01807 102.067 8.32568C102.696 8.62646 103.137 9.0127 103.39 9.48438C103.65 9.94922 103.78 10.8071 103.78 12.0581L103.749 15.4214C103.749 16.3784 103.793 17.0859 103.882 17.5439C103.978 17.9951 104.152 18.4805 104.405 19H101.555C101.479 18.8086 101.387 18.5249 101.278 18.1489C101.23 17.978 101.196 17.8652 101.175 17.8105C100.683 18.2891 100.157 18.6479 99.5962 18.8872C99.0356 19.1265 98.4375 19.2461 97.8018 19.2461C96.6807 19.2461 95.7954 18.9419 95.146 18.3335C94.5034 17.7251 94.1821 16.9561 94.1821 16.0264C94.1821 15.4111 94.3291 14.8643 94.623 14.3857C94.917 13.9004 95.3271 13.5312 95.8535 13.2783C96.3867 13.0186 97.1523 12.793 98.1504 12.6016C99.4971 12.3486 100.43 12.1128 100.95 11.894V11.6069C100.95 11.0532 100.813 10.6602 100.54 10.4277C100.266 10.1885 99.75 10.0688 98.9912 10.0688C98.4785 10.0688 98.0786 10.1714 97.7915 10.3765C97.5044 10.5747 97.272 10.9268 97.0942 11.4326ZM100.95 13.7705C100.581 13.8936 99.9961 14.0405 99.1963 14.2114C98.3965 14.3823 97.8735 14.5498 97.6274 14.7139C97.2515 14.9805 97.0635 15.3188 97.0635 15.729C97.0635 16.1323 97.2139 16.481 97.5146 16.7749C97.8154 17.0688 98.1982 17.2158 98.6631 17.2158C99.1826 17.2158 99.6782 17.0449 100.15 16.7031C100.499 16.4434 100.728 16.1255 100.837 15.7495C100.912 15.5034 100.95 15.0352 100.95 14.3447V13.7705ZM109.625 19L105.236 8.11035H108.261L110.312 13.668L110.906 15.5239C111.063 15.0522 111.163 14.7412 111.204 14.5908C111.299 14.2832 111.402 13.9756 111.511 13.668L113.583 8.11035H116.546L112.219 19H109.625ZM124.626 15.5342L127.497 16.0161C127.128 17.0688 126.543 17.8721 125.744 18.4258C124.951 18.9727 123.956 19.2461 122.76 19.2461C120.866 19.2461 119.465 18.6274 118.556 17.3901C117.838 16.3989 117.479 15.1479 117.479 13.6372C117.479 11.8325 117.951 10.4209 118.894 9.40234C119.837 8.37695 121.03 7.86426 122.473 7.86426C124.093 7.86426 125.371 8.40088 126.308 9.47412C127.244 10.5405 127.692 12.1777 127.651 14.3857H120.432C120.453 15.2402 120.685 15.9067 121.129 16.3853C121.574 16.8569 122.127 17.0928 122.791 17.0928C123.242 17.0928 123.621 16.9697 123.929 16.7236C124.236 16.4775 124.469 16.0811 124.626 15.5342ZM124.79 12.6221C124.77 11.7881 124.554 11.1558 124.144 10.7251C123.734 10.2876 123.235 10.0688 122.647 10.0688C122.018 10.0688 121.499 10.2979 121.088 10.7559C120.678 11.2139 120.477 11.8359 120.483 12.6221H124.79ZM139.915 19H137.033V13.4424C137.033 12.2666 136.972 11.5078 136.849 11.166C136.726 10.8174 136.524 10.5474 136.244 10.356C135.97 10.1646 135.639 10.0688 135.249 10.0688C134.75 10.0688 134.302 10.2056 133.906 10.479C133.509 10.7524 133.236 11.1147 133.085 11.5659C132.942 12.0171 132.87 12.8511 132.87 14.0679V19H129.989V8.11035H132.665V9.70996C133.615 8.47949 134.812 7.86426 136.254 7.86426C136.89 7.86426 137.471 7.98047 137.997 8.21289C138.523 8.43848 138.92 8.729 139.187 9.08447C139.46 9.43994 139.648 9.84326 139.75 10.2944C139.86 10.7456 139.915 11.3916 139.915 12.2324V19Z" fill="white"/>
<rect x="47" y="3" width="3" height="4" fill="#0E0E0E"/>
<circle cx="48.5" cy="3.5" r="2.5" fill="#FF0000"/>
</svg>
